<svg xmlns="http://www.w3.org/2000/svg" width="960" height="540" viewBox="0 0 960 540" role="img" aria-labelledby="title desc">
  <title id="title">SwiftUICalendar overview</title>
  <desc id="desc">A stylized calendar grid with selected dates and alternate calendar labels.</desc>
  <rect width="960" height="540" rx="40" fill="#0f172a"/>
  <rect x="120" y="80" width="720" height="380" rx="28" fill="#f8fafc"/>
  <text x="160" y="140" fill="#0f172a" font-family="-apple-system, BlinkMacSystemFont, sans-serif" font-size="34" font-weight="700">June 2025</text>
  <text x="704" y="140" fill="#475569" font-family="-apple-system, BlinkMacSystemFont, sans-serif" font-size="22">Persian labels</text>
  <g font-family="-apple-system, BlinkMacSystemFont, sans-serif" font-size="18" font-weight="600" fill="#64748b">
    <text x="168" y="190">S</text><text x="268" y="190">M</text><text x="368" y="190">T</text><text x="468" y="190">W</text><text x="568" y="190">T</text><text x="668" y="190">F</text><text x="768" y="190">S</text>
  </g>
  <g font-family="-apple-system, BlinkMacSystemFont, sans-serif" font-size="22" fill="#0f172a">
    <rect x="145" y="218" width="64" height="54" rx="14" fill="#e0e7ff"/><text x="169" y="253">1</text>
    <rect x="245" y="218" width="64" height="54" rx="14" fill="#ffffff" stroke="#e2e8f0"/><text x="269" y="253">2</text>
    <rect x="345" y="218" width="64" height="54" rx="14" fill="#ffffff" stroke="#e2e8f0"/><text x="369" y="253">3</text>
    <rect x="445" y="218" width="64" height="54" rx="14" fill="#4f46e5"/><text x="469" y="253" fill="#ffffff">4</text>
    <rect x="545" y="218" width="64" height="54" rx="14" fill="#4f46e5"/><text x="569" y="253" fill="#ffffff">5</text>
    <rect x="645" y="218" width="64" height="54" rx="14" fill="#4f46e5"/><text x="669" y="253" fill="#ffffff">6</text>
    <rect x="745" y="218" width="64" height="54" rx="14" fill="#ffffff" stroke="#f97316" stroke-width="3"/><text x="769" y="253">7</text>
    <rect x="145" y="294" width="64" height="54" rx="14" fill="#ffffff" stroke="#e2e8f0"/><text x="169" y="329">8</text>
    <rect x="245" y="294" width="64" height="54" rx="14" fill="#ffffff" stroke="#e2e8f0"/><text x="269" y="329">9</text>
    <rect x="345" y="294" width="64" height="54" rx="14" fill="#ffffff" stroke="#e2e8f0"/><text x="363" y="329">10</text>
    <rect x="445" y="294" width="64" height="54" rx="14" fill="#ffffff" stroke="#e2e8f0"/><text x="463" y="329">11</text>
    <rect x="545" y="294" width="64" height="54" rx="14" fill="#ffffff" stroke="#e2e8f0"/><text x="563" y="329">12</text>
    <rect x="645" y="294" width="64" height="54" rx="14" fill="#ffffff" stroke="#e2e8f0"/><text x="663" y="329">13</text>
    <rect x="745" y="294" width="64" height="54" rx="14" fill="#ffffff" stroke="#e2e8f0"/><text x="763" y="329">14</text>
  </g>
</svg>
